<mxfile host="app.diagrams.net" modified="2023-06-05T22:38:38.219Z" agent="Mozilla/5.0 (Windows NT 10.0; Win64; x64) AppleWebKit/537.36 (KHTML, like Gecko) Chrome/114.0.0.0 Safari/537.36 Edg/114.0.1823.37" etag="99qiGg29OtJDHeRpi2jB" version="21.3.7" type="device">
  <diagram name="Page-1" id="vJQsI2HW_MRC4xHcgE_t">
    <mxGraphModel dx="4940" dy="1298" grid="0" gridSize="10" guides="1" tooltips="1" connect="1" arrows="1" fold="1" page="1" pageScale="1" pageWidth="850" pageHeight="1100" math="0" shadow="0">
      <root>
        <mxCell id="0" />
        <mxCell id="1" parent="0" />
        <mxCell id="hI-GNgagakd22B54G5K8-46" value="" style="rounded=0;whiteSpace=wrap;html=1;fontFamily=Helvetica;fontSize=20;" parent="1" vertex="1">
          <mxGeometry x="-2220" y="185" width="1150" height="1850" as="geometry" />
        </mxCell>
        <mxCell id="8Evhf4HylxbXUW5uSEZg-1" value="Procurement Manager" style="shape=umlActor;verticalLabelPosition=bottom;verticalAlign=top;html=1;outlineConnect=0;rounded=0;fontSize=20;" parent="1" vertex="1">
          <mxGeometry x="-1153" y="529" width="30" height="60" as="geometry" />
        </mxCell>
        <mxCell id="8Evhf4HylxbXUW5uSEZg-6" value="Delete Inventory Item" style="ellipse;whiteSpace=wrap;html=1;fillColor=#f5f5f5;strokeColor=#666666;rounded=0;fontSize=20;fontColor=#333333;" parent="1" vertex="1">
          <mxGeometry x="-873" y="279" width="140" height="80" as="geometry" />
        </mxCell>
        <mxCell id="hI-GNgagakd22B54G5K8-3" style="edgeStyle=orthogonalEdgeStyle;rounded=0;orthogonalLoop=1;jettySize=auto;html=1;entryX=0;entryY=0.5;entryDx=0;entryDy=0;endArrow=none;endFill=0;" parent="1" source="8Evhf4HylxbXUW5uSEZg-1" target="8Evhf4HylxbXUW5uSEZg-6" edge="1">
          <mxGeometry relative="1" as="geometry" />
        </mxCell>
        <mxCell id="8Evhf4HylxbXUW5uSEZg-8" value="Update Inventory Item" style="ellipse;whiteSpace=wrap;html=1;fillColor=#f5f5f5;strokeColor=#666666;rounded=0;fontSize=20;fontColor=#333333;" parent="1" vertex="1">
          <mxGeometry x="-873" y="379" width="140" height="80" as="geometry" />
        </mxCell>
        <mxCell id="hI-GNgagakd22B54G5K8-4" style="edgeStyle=orthogonalEdgeStyle;rounded=0;orthogonalLoop=1;jettySize=auto;html=1;entryX=0;entryY=0.5;entryDx=0;entryDy=0;endArrow=none;endFill=0;" parent="1" source="8Evhf4HylxbXUW5uSEZg-1" target="8Evhf4HylxbXUW5uSEZg-8" edge="1">
          <mxGeometry relative="1" as="geometry" />
        </mxCell>
        <mxCell id="8Evhf4HylxbXUW5uSEZg-9" value="Add Inventory Item" style="ellipse;whiteSpace=wrap;html=1;rounded=0;fontSize=20;fillColor=#f5f5f5;strokeColor=#666666;fontColor=#333333;" parent="1" vertex="1">
          <mxGeometry x="-873" y="189" width="140" height="80" as="geometry" />
        </mxCell>
        <mxCell id="hI-GNgagakd22B54G5K8-5" style="edgeStyle=orthogonalEdgeStyle;rounded=0;orthogonalLoop=1;jettySize=auto;html=1;entryX=0;entryY=0.5;entryDx=0;entryDy=0;endArrow=none;endFill=0;" parent="1" source="8Evhf4HylxbXUW5uSEZg-1" target="8Evhf4HylxbXUW5uSEZg-9" edge="1">
          <mxGeometry relative="1" as="geometry" />
        </mxCell>
        <mxCell id="8Evhf4HylxbXUW5uSEZg-10" value="Record Inventory Movement" style="ellipse;whiteSpace=wrap;html=1;fillColor=#f5f5f5;strokeColor=#666666;rounded=0;fontSize=20;fontColor=#333333;" parent="1" vertex="1">
          <mxGeometry x="-873" y="479" width="140" height="80" as="geometry" />
        </mxCell>
        <mxCell id="hI-GNgagakd22B54G5K8-6" style="edgeStyle=orthogonalEdgeStyle;rounded=0;orthogonalLoop=1;jettySize=auto;html=1;entryX=0;entryY=0.5;entryDx=0;entryDy=0;endArrow=none;endFill=0;" parent="1" source="8Evhf4HylxbXUW5uSEZg-1" target="8Evhf4HylxbXUW5uSEZg-10" edge="1">
          <mxGeometry relative="1" as="geometry" />
        </mxCell>
        <mxCell id="8Evhf4HylxbXUW5uSEZg-11" value="View Inventory" style="ellipse;whiteSpace=wrap;html=1;fillColor=#f5f5f5;strokeColor=#666666;rounded=0;fontSize=20;fontColor=#333333;" parent="1" vertex="1">
          <mxGeometry x="-873" y="579" width="140" height="80" as="geometry" />
        </mxCell>
        <mxCell id="hI-GNgagakd22B54G5K8-7" style="edgeStyle=orthogonalEdgeStyle;rounded=0;orthogonalLoop=1;jettySize=auto;html=1;entryX=0;entryY=0.5;entryDx=0;entryDy=0;endArrow=none;endFill=0;" parent="1" source="8Evhf4HylxbXUW5uSEZg-1" target="8Evhf4HylxbXUW5uSEZg-11" edge="1">
          <mxGeometry relative="1" as="geometry" />
        </mxCell>
        <mxCell id="WsD2h2kV2_ezjGF4_xfR-2" style="edgeStyle=orthogonalEdgeStyle;rounded=0;orthogonalLoop=1;jettySize=auto;html=1;entryX=0.04;entryY=0.354;entryDx=0;entryDy=0;entryPerimeter=0;" parent="1" source="8Evhf4HylxbXUW5uSEZg-18" target="8Evhf4HylxbXUW5uSEZg-43" edge="1">
          <mxGeometry relative="1" as="geometry">
            <Array as="points">
              <mxPoint x="-674" y="1470" />
              <mxPoint x="-674" y="1471" />
            </Array>
          </mxGeometry>
        </mxCell>
        <mxCell id="8Evhf4HylxbXUW5uSEZg-18" value="Manufacturing Manager" style="shape=umlActor;verticalLabelPosition=bottom;verticalAlign=top;html=1;outlineConnect=0;rounded=0;fontSize=20;" parent="1" vertex="1">
          <mxGeometry x="-947" y="1428" width="30" height="60" as="geometry" />
        </mxCell>
        <mxCell id="8Evhf4HylxbXUW5uSEZg-20" value="Update Production Order" style="ellipse;whiteSpace=wrap;html=1;fillColor=#f5f5f5;strokeColor=#666666;rounded=0;fontSize=20;fontColor=#333333;" parent="1" vertex="1">
          <mxGeometry x="-662" y="1160" width="140" height="80" as="geometry" />
        </mxCell>
        <mxCell id="hI-GNgagakd22B54G5K8-1" style="edgeStyle=orthogonalEdgeStyle;rounded=0;orthogonalLoop=1;jettySize=auto;html=1;endArrow=none;endFill=0;" parent="1" source="8Evhf4HylxbXUW5uSEZg-18" target="8Evhf4HylxbXUW5uSEZg-20" edge="1">
          <mxGeometry relative="1" as="geometry">
            <Array as="points">
              <mxPoint x="-799" y="1470" />
              <mxPoint x="-799" y="1200" />
            </Array>
          </mxGeometry>
        </mxCell>
        <mxCell id="8Evhf4HylxbXUW5uSEZg-21" value="Create Production Order" style="ellipse;whiteSpace=wrap;html=1;fillColor=#f5f5f5;strokeColor=#666666;rounded=0;fontSize=20;fontColor=#333333;" parent="1" vertex="1">
          <mxGeometry x="-662" y="1250" width="140" height="80" as="geometry" />
        </mxCell>
        <mxCell id="hI-GNgagakd22B54G5K8-2" style="edgeStyle=orthogonalEdgeStyle;rounded=0;orthogonalLoop=1;jettySize=auto;html=1;entryX=0;entryY=0.5;entryDx=0;entryDy=0;endArrow=none;endFill=0;" parent="1" source="8Evhf4HylxbXUW5uSEZg-18" target="8Evhf4HylxbXUW5uSEZg-21" edge="1">
          <mxGeometry relative="1" as="geometry">
            <Array as="points">
              <mxPoint x="-797" y="1470" />
              <mxPoint x="-797" y="1290" />
            </Array>
          </mxGeometry>
        </mxCell>
        <mxCell id="8Evhf4HylxbXUW5uSEZg-22" value="View Production Status" style="ellipse;whiteSpace=wrap;html=1;fillColor=#f5f5f5;strokeColor=#666666;rounded=0;fontSize=20;fontColor=#333333;" parent="1" vertex="1">
          <mxGeometry x="-667" y="1070" width="140" height="80" as="geometry" />
        </mxCell>
        <mxCell id="hI-GNgagakd22B54G5K8-8" style="edgeStyle=orthogonalEdgeStyle;rounded=0;orthogonalLoop=1;jettySize=auto;html=1;entryX=0;entryY=0.5;entryDx=0;entryDy=0;endArrow=none;endFill=0;" parent="1" source="8Evhf4HylxbXUW5uSEZg-18" target="8Evhf4HylxbXUW5uSEZg-22" edge="1">
          <mxGeometry relative="1" as="geometry">
            <Array as="points">
              <mxPoint x="-798" y="1470" />
              <mxPoint x="-798" y="1110" />
            </Array>
          </mxGeometry>
        </mxCell>
        <mxCell id="8Evhf4HylxbXUW5uSEZg-23" value="Cancel Production Order" style="ellipse;whiteSpace=wrap;html=1;fillColor=#f5f5f5;strokeColor=#666666;rounded=0;fontSize=20;fontColor=#333333;" parent="1" vertex="1">
          <mxGeometry x="-662" y="1350" width="140" height="80" as="geometry" />
        </mxCell>
        <mxCell id="hI-GNgagakd22B54G5K8-10" style="edgeStyle=orthogonalEdgeStyle;rounded=0;orthogonalLoop=1;jettySize=auto;html=1;entryX=0;entryY=0.5;entryDx=0;entryDy=0;endArrow=none;endFill=0;" parent="1" source="8Evhf4HylxbXUW5uSEZg-18" target="8Evhf4HylxbXUW5uSEZg-23" edge="1">
          <mxGeometry relative="1" as="geometry">
            <Array as="points">
              <mxPoint x="-798" y="1470" />
              <mxPoint x="-798" y="1390" />
            </Array>
          </mxGeometry>
        </mxCell>
        <mxCell id="8Evhf4HylxbXUW5uSEZg-28" value="Authenticate User" style="ellipse;whiteSpace=wrap;html=1;fillColor=#f5f5f5;strokeColor=#666666;rounded=0;fontSize=20;fontColor=#333333;" parent="1" vertex="1">
          <mxGeometry x="-343" y="1341" width="140" height="80" as="geometry" />
        </mxCell>
        <mxCell id="8Evhf4HylxbXUW5uSEZg-35" value="Update Purchase Order" style="ellipse;whiteSpace=wrap;html=1;fillColor=#f5f5f5;strokeColor=#666666;rounded=0;fontSize=20;fontColor=#333333;" parent="1" vertex="1">
          <mxGeometry x="-873" y="669" width="140" height="80" as="geometry" />
        </mxCell>
        <mxCell id="xx4X7zGLi0j-BYVn4b4D-5" style="edgeStyle=orthogonalEdgeStyle;rounded=0;orthogonalLoop=1;jettySize=auto;html=1;entryX=0;entryY=0.5;entryDx=0;entryDy=0;endArrow=none;endFill=0;" parent="1" source="8Evhf4HylxbXUW5uSEZg-1" target="8Evhf4HylxbXUW5uSEZg-35" edge="1">
          <mxGeometry relative="1" as="geometry" />
        </mxCell>
        <mxCell id="8Evhf4HylxbXUW5uSEZg-36" value="Create Purchase Order" style="ellipse;whiteSpace=wrap;html=1;fillColor=#f5f5f5;strokeColor=#666666;rounded=0;fontSize=20;fontColor=#333333;" parent="1" vertex="1">
          <mxGeometry x="-873" y="759" width="140" height="80" as="geometry" />
        </mxCell>
        <mxCell id="xx4X7zGLi0j-BYVn4b4D-6" style="edgeStyle=orthogonalEdgeStyle;rounded=0;orthogonalLoop=1;jettySize=auto;html=1;entryX=0;entryY=0.5;entryDx=0;entryDy=0;endArrow=none;endFill=0;" parent="1" source="8Evhf4HylxbXUW5uSEZg-1" target="8Evhf4HylxbXUW5uSEZg-36" edge="1">
          <mxGeometry relative="1" as="geometry" />
        </mxCell>
        <mxCell id="8Evhf4HylxbXUW5uSEZg-37" value="Cancel Purchase Order" style="ellipse;whiteSpace=wrap;html=1;fillColor=#f5f5f5;strokeColor=#666666;rounded=0;fontSize=20;fontColor=#333333;" parent="1" vertex="1">
          <mxGeometry x="-667" y="960" width="140" height="80" as="geometry" />
        </mxCell>
        <mxCell id="xx4X7zGLi0j-BYVn4b4D-7" style="edgeStyle=orthogonalEdgeStyle;rounded=0;orthogonalLoop=1;jettySize=auto;html=1;entryX=0;entryY=0.5;entryDx=0;entryDy=0;endArrow=none;endFill=0;" parent="1" source="8Evhf4HylxbXUW5uSEZg-1" edge="1">
          <mxGeometry relative="1" as="geometry">
            <mxPoint x="-873" y="889" as="targetPoint" />
          </mxGeometry>
        </mxCell>
        <mxCell id="8Evhf4HylxbXUW5uSEZg-43" value="Add Immobilisation" style="ellipse;whiteSpace=wrap;html=1;fillColor=#f5f5f5;strokeColor=#666666;rounded=0;fontSize=20;fontColor=#333333;" parent="1" vertex="1">
          <mxGeometry x="-674" y="1443" width="140" height="80" as="geometry" />
        </mxCell>
        <mxCell id="8Evhf4HylxbXUW5uSEZg-44" value="Update Immobilisation&amp;nbsp;" style="ellipse;whiteSpace=wrap;html=1;fillColor=#f5f5f5;strokeColor=#666666;rounded=0;fontSize=20;fontColor=#333333;" parent="1" vertex="1">
          <mxGeometry x="-662" y="1530" width="140" height="80" as="geometry" />
        </mxCell>
        <mxCell id="8Evhf4HylxbXUW5uSEZg-45" value="View Immobilisation" style="ellipse;whiteSpace=wrap;html=1;fillColor=#f5f5f5;strokeColor=#666666;rounded=0;fontSize=20;fontColor=#333333;" parent="1" vertex="1">
          <mxGeometry x="-662" y="1630" width="140" height="80" as="geometry" />
        </mxCell>
        <mxCell id="8Evhf4HylxbXUW5uSEZg-46" value="Delete Immobilisation" style="ellipse;whiteSpace=wrap;html=1;fillColor=#f5f5f5;strokeColor=#666666;rounded=0;fontSize=20;fontColor=#333333;" parent="1" vertex="1">
          <mxGeometry x="-662" y="1730" width="140" height="80" as="geometry" />
        </mxCell>
        <mxCell id="XeN7US4WUIDvYeBKOmuq-5" value="Super User" style="shape=umlActor;verticalLabelPosition=bottom;verticalAlign=top;html=1;outlineConnect=0;rounded=0;fontSize=20;" parent="1" vertex="1">
          <mxGeometry x="-860" y="1958" width="30" height="60" as="geometry" />
        </mxCell>
        <mxCell id="XeN7US4WUIDvYeBKOmuq-7" value="Manage And Control The System" style="ellipse;whiteSpace=wrap;html=1;fillColor=#f5f5f5;strokeColor=#666666;rounded=0;fontSize=20;fontColor=#333333;" parent="1" vertex="1">
          <mxGeometry x="-685" y="1958" width="163" height="85" as="geometry" />
        </mxCell>
        <mxCell id="XeN7US4WUIDvYeBKOmuq-3" style="edgeStyle=orthogonalEdgeStyle;rounded=0;orthogonalLoop=1;jettySize=auto;html=1;entryX=0.005;entryY=0.376;entryDx=0;entryDy=0;entryPerimeter=0;fontSize=20;endArrow=none;endFill=0;" parent="1" source="XeN7US4WUIDvYeBKOmuq-5" target="XeN7US4WUIDvYeBKOmuq-7" edge="1">
          <mxGeometry relative="1" as="geometry">
            <mxPoint x="-715" y="2038.1" as="targetPoint" />
          </mxGeometry>
        </mxCell>
        <mxCell id="QmUB73bxb7fHbpwDJTIm-4" value="&lt;font size=&quot;1&quot; face=&quot;Verdana&quot; style=&quot;&quot;&gt;&lt;b style=&quot;font-size: 50px;&quot;&gt;AgroSense&lt;/b&gt;&lt;/font&gt;" style="text;html=1;align=center;verticalAlign=middle;whiteSpace=wrap;rounded=1;arcSize=50;fontSize=20;" parent="1" vertex="1">
          <mxGeometry x="-823" y="19" width="350" height="120" as="geometry" />
        </mxCell>
        <mxCell id="xx4X7zGLi0j-BYVn4b4D-9" style="edgeStyle=orthogonalEdgeStyle;rounded=0;orthogonalLoop=1;jettySize=auto;html=1;entryX=0;entryY=0.5;entryDx=0;entryDy=0;endArrow=none;endFill=0;" parent="1" source="8Evhf4HylxbXUW5uSEZg-18" target="8Evhf4HylxbXUW5uSEZg-44" edge="1">
          <mxGeometry relative="1" as="geometry">
            <Array as="points">
              <mxPoint x="-798" y="1470" />
              <mxPoint x="-798" y="1570" />
            </Array>
          </mxGeometry>
        </mxCell>
        <mxCell id="xx4X7zGLi0j-BYVn4b4D-10" style="edgeStyle=orthogonalEdgeStyle;rounded=0;orthogonalLoop=1;jettySize=auto;html=1;entryX=0;entryY=0.5;entryDx=0;entryDy=0;endArrow=none;endFill=0;" parent="1" source="8Evhf4HylxbXUW5uSEZg-18" target="8Evhf4HylxbXUW5uSEZg-45" edge="1">
          <mxGeometry relative="1" as="geometry">
            <Array as="points">
              <mxPoint x="-798" y="1470" />
              <mxPoint x="-798" y="1670" />
            </Array>
          </mxGeometry>
        </mxCell>
        <mxCell id="xx4X7zGLi0j-BYVn4b4D-11" style="edgeStyle=orthogonalEdgeStyle;rounded=0;orthogonalLoop=1;jettySize=auto;html=1;entryX=0;entryY=0.5;entryDx=0;entryDy=0;endArrow=none;endFill=0;" parent="1" source="8Evhf4HylxbXUW5uSEZg-18" target="8Evhf4HylxbXUW5uSEZg-46" edge="1">
          <mxGeometry relative="1" as="geometry">
            <Array as="points">
              <mxPoint x="-798" y="1470" />
              <mxPoint x="-798" y="1770" />
            </Array>
          </mxGeometry>
        </mxCell>
      </root>
    </mxGraphModel>
  </diagram>
</mxfile>
